<?xml version="1.0" encoding="UTF-8"?>
<svg xmlns="http://www.w3.org/2000/svg" xmlns:xlink="http://www.w3.org/1999/xlink" width="38px" height="38px" viewBox="0 0 38 38" version="1.1">
<g id="surface1">
<path style=" stroke:none;fill-rule:nonzero;fill:rgb(100%,100%,100%);fill-opacity:1;" d="M 18.996094 0.398438 C 8.503906 0.398438 0 8.9375 0 19.472656 C 0 27.898438 5.445312 35.046875 12.996094 37.570312 C 13.945312 37.746094 14.292969 37.15625 14.292969 36.652344 C 14.292969 36.199219 14.277344 34.996094 14.265625 33.410156 C 8.980469 34.558594 7.867188 30.847656 7.867188 30.847656 C 7.003906 28.644531 5.753906 28.058594 5.753906 28.058594 C 4.03125 26.878906 5.886719 26.902344 5.886719 26.902344 C 7.792969 27.035156 8.792969 28.867188 8.792969 28.867188 C 10.492188 31.78125 13.246094 30.941406 14.324219 30.453125 C 14.5 29.21875 14.988281 28.378906 15.535156 27.898438 C 11.316406 27.417969 6.875 25.785156 6.875 18.472656 C 6.875 16.390625 7.617188 14.6875 8.835938 13.351562 C 8.640625 12.871094 7.984375 10.933594 9.019531 8.304688 C 9.019531 8.304688 10.617188 7.792969 14.246094 10.261719 C 15.761719 9.835938 17.386719 9.625 19.003906 9.617188 C 20.613281 9.628906 22.242188 9.835938 23.761719 10.265625 C 27.386719 7.796875 28.980469 8.308594 28.980469 8.308594 C 30.015625 10.9375 29.363281 12.875 29.167969 13.355469 C 30.390625 14.691406 31.125 16.394531 31.125 18.476562 C 31.125 25.800781 26.683594 27.417969 22.449219 27.886719 C 23.128906 28.476562 23.738281 29.644531 23.738281 31.421875 C 23.738281 33.96875 23.714844 36.03125 23.714844 36.652344 C 23.714844 37.160156 24.058594 37.753906 25.019531 37.570312 C 32.558594 35.042969 38 27.894531 38 19.472656 C 38 8.9375 29.496094 0.398438 18.996094 0.398438 Z M 18.996094 0.398438 "/>
</g>
</svg>
