<?xml version="1.0" encoding="UTF-8"?>
<svg xmlns="http://www.w3.org/2000/svg" xmlns:xlink="http://www.w3.org/1999/xlink" width="40px" height="40px" viewBox="0 0 40 40" version="1.1">
<g id="surface1">
<path style=" stroke:none;fill-rule:nonzero;fill:rgb(100%,100%,100%);fill-opacity:1;" d="M 19.996094 0.417969 C 8.953125 0.417969 0 9.40625 0 20.496094 C 0 29.367188 5.730469 36.890625 13.679688 39.546875 C 14.679688 39.734375 15.046875 39.113281 15.046875 38.582031 C 15.046875 38.105469 15.027344 36.839844 15.015625 35.167969 C 9.453125 36.378906 8.28125 32.472656 8.28125 32.472656 C 7.371094 30.152344 6.058594 29.535156 6.058594 29.535156 C 4.242188 28.292969 6.195312 28.316406 6.195312 28.316406 C 8.203125 28.457031 9.257812 30.386719 9.257812 30.386719 C 11.042969 33.453125 13.941406 32.570312 15.078125 32.054688 C 15.261719 30.757812 15.777344 29.871094 16.351562 29.367188 C 11.910156 28.859375 7.238281 27.140625 7.238281 19.445312 C 7.238281 17.253906 8.019531 15.460938 9.300781 14.054688 C 9.09375 13.546875 8.40625 11.507812 9.496094 8.742188 C 9.496094 8.742188 11.175781 8.203125 14.996094 10.800781 C 16.589844 10.355469 18.300781 10.132812 20.003906 10.125 C 21.699219 10.136719 23.414062 10.355469 25.011719 10.804688 C 28.828125 8.207031 30.503906 8.746094 30.503906 8.746094 C 31.59375 11.511719 30.910156 13.550781 30.703125 14.058594 C 31.988281 15.464844 32.761719 17.257812 32.761719 19.449219 C 32.761719 27.160156 28.085938 28.859375 23.628906 29.355469 C 24.347656 29.976562 24.988281 31.203125 24.988281 33.074219 C 24.988281 35.757812 24.960938 37.925781 24.960938 38.582031 C 24.960938 39.117188 25.324219 39.742188 26.335938 39.546875 C 34.273438 36.886719 40 29.363281 40 20.496094 C 40 9.40625 31.046875 0.417969 19.996094 0.417969 Z M 19.996094 0.417969 "/>
</g>
</svg>
