<?xml version="1.0" encoding="UTF-8"?>
<svg xmlns="http://www.w3.org/2000/svg" xmlns:xlink="http://www.w3.org/1999/xlink" width="40px" height="40px" viewBox="0 0 40 40" version="1.1">
<g id="surface1">
<path style=" stroke:none;fill-rule:nonzero;fill:rgb(95.294118%,95.294118%,95.294118%);fill-opacity:1;" d="M 32.199219 37.890625 C 31.886719 37.890625 31.578125 37.796875 31.3125 37.617188 L 21.253906 30.792969 L 15.859375 34.675781 C 15.4375 34.980469 14.890625 35.054688 14.402344 34.882812 C 13.910156 34.703125 13.539062 34.296875 13.40625 33.792969 L 10.695312 23.53125 L 1.019531 19.828125 C 0.410156 19.597656 0.00390625 19.011719 0 18.359375 C -0.00390625 17.707031 0.390625 17.121094 0.996094 16.878906 L 37.796875 2.234375 C 37.964844 2.164062 38.140625 2.125 38.320312 2.113281 C 38.382812 2.109375 38.445312 2.109375 38.511719 2.113281 C 38.878906 2.136719 39.242188 2.285156 39.523438 2.5625 C 39.554688 2.589844 39.582031 2.621094 39.609375 2.652344 C 39.84375 2.917969 39.972656 3.246094 39.996094 3.578125 C 40 3.660156 40 3.746094 39.992188 3.832031 C 39.988281 3.890625 39.980469 3.953125 39.96875 4.011719 L 33.757812 36.601562 C 33.65625 37.125 33.300781 37.5625 32.808594 37.769531 C 32.613281 37.851562 32.40625 37.890625 32.199219 37.890625 Z M 22.136719 27.566406 L 31.097656 33.644531 L 35.929688 8.285156 L 18.472656 25.082031 L 22.09375 27.539062 C 22.109375 27.546875 22.125 27.558594 22.136719 27.566406 Z M 14.679688 26.214844 L 15.878906 30.761719 L 18.464844 28.902344 L 15.078125 26.605469 C 14.921875 26.5 14.789062 26.367188 14.679688 26.214844 Z M 5.941406 18.320312 L 12.585938 20.863281 C 13.0625 21.042969 13.421875 21.445312 13.550781 21.9375 L 14.394531 25.128906 C 14.433594 24.761719 14.597656 24.414062 14.871094 24.152344 L 31.503906 8.148438 Z M 5.941406 18.320312 "/>
</g>
</svg>
