<?xml version="1.0" encoding="UTF-8"?>
<svg xmlns="http://www.w3.org/2000/svg" xmlns:xlink="http://www.w3.org/1999/xlink" width="38px" height="38px" viewBox="0 0 38 38" version="1.1">
<g id="surface1">
<path style=" stroke:none;fill-rule:nonzero;fill:rgb(95.294118%,95.294118%,95.294118%);fill-opacity:1;" d="M 30.589844 35.996094 C 30.292969 35.996094 30 35.90625 29.746094 35.738281 L 20.191406 29.253906 L 15.066406 32.941406 C 14.664062 33.230469 14.144531 33.300781 13.683594 33.136719 C 13.214844 32.96875 12.863281 32.582031 12.734375 32.101562 L 10.160156 22.355469 L 0.96875 18.835938 C 0.390625 18.617188 0.00390625 18.0625 0 17.441406 C -0.00390625 16.820312 0.371094 16.265625 0.945312 16.035156 L 35.90625 2.121094 C 36.066406 2.054688 36.234375 2.019531 36.402344 2.007812 C 36.464844 2.003906 36.523438 2.003906 36.585938 2.007812 C 36.933594 2.03125 37.28125 2.171875 37.546875 2.433594 C 37.578125 2.460938 37.601562 2.488281 37.628906 2.519531 C 37.851562 2.773438 37.972656 3.082031 37.996094 3.398438 C 38 3.476562 38 3.558594 37.992188 3.640625 C 37.988281 3.695312 37.980469 3.753906 37.96875 3.8125 L 32.070312 34.769531 C 31.972656 35.269531 31.636719 35.683594 31.167969 35.882812 C 30.984375 35.957031 30.785156 35.996094 30.589844 35.996094 Z M 21.03125 26.1875 L 29.542969 31.960938 L 34.132812 7.871094 L 17.550781 23.828125 L 20.988281 26.160156 C 21.003906 26.167969 21.019531 26.179688 21.03125 26.1875 Z M 13.945312 24.902344 L 15.085938 29.222656 L 17.542969 27.457031 L 14.324219 25.273438 C 14.175781 25.175781 14.050781 25.050781 13.945312 24.902344 Z M 5.644531 17.402344 L 11.957031 19.820312 C 12.410156 19.992188 12.75 20.371094 12.875 20.839844 L 13.675781 23.871094 C 13.710938 23.523438 13.867188 23.191406 14.128906 22.945312 L 29.929688 7.742188 Z M 5.644531 17.402344 "/>
</g>
</svg>
